<!DOCTYPE svg PUBLIC "-//W3C//DTD SVG 20010904//EN" "http://www.w3.org/TR/2001/REC-SVG-20010904/DTD/svg10.dtd">
<svg version="1.0" xmlns="http://www.w3.org/2000/svg" width="600px" height="600px" viewBox="0 0 6000 6000" preserveAspectRatio="xMidYMid meet">
<g id="layer101" fill="#0a0806" stroke="none">
 <path d="M0 3000 l0 -3000 3000 0 3000 0 0 3000 0 3000 -3000 0 -3000 0 0 -3000z"/>
 </g>
<g id="layer102" fill="#48dbb4" stroke="none">
 <path d="M2820 5494 c-19 -2 -78 -9 -130 -15 -149 -17 -322 -56 -485 -110 -765 -255 -1363 -872 -1598 -1649 -74 -245 -102 -439 -102 -720 0 -280 28 -475 101 -717 243 -804 872 -1434 1674 -1676 245 -74 439 -102 720 -102 280 0 475 28 717 101 804 243 1434 872 1676 1674 74 245 102 439 102 720 0 280 -28 475 -101 717 -203 672 -670 1222 -1298 1528 -239 117 -481 191 -748 230 -99 15 -455 28 -528 19z m543 -223 c256 -45 431 -101 652 -210 588 -290 1028 -821 1200 -1448 63 -230 79 -351 79 -608 1 -177 -3 -255 -17 -338 -85 -509 -285 -910 -631 -1266 -354 -363 -770 -581 -1283 -672 -109 -20 -162 -23 -363 -23 -201 0 -254 3 -363 23 -515 91 -932 310 -1287 677 -335 346 -535 741 -621 1231 -31 172 -34 529 -6 696 44 264 106 458 216 682 356 721 1044 1193 1866 1279 106 11 444 -3 558 -23z"/>
 <path d="M1950 3785 l0 -225 105 0 105 0 0 -560 0 -560 -105 0 -105 0 0 -225 0 -225 120 0 120 0 0 85 0 85 65 0 65 0 0 -85 0 -86 118 3 117 3 3 83 3 82 64 0 65 0 0 -85 0 -86 118 3 117 3 0 220 0 220 -87 3 -88 3 0 179 0 180 68 -1 67 0 151 -177 152 -177 -74 -3 -74 -3 0 -224 0 -225 505 0 505 0 0 225 0 225 -77 0 -78 1 -235 274 c-129 150 -234 280 -234 288 1 8 106 136 234 286 l233 271 78 0 79 0 0 220 0 220 -505 0 -505 0 0 -220 0 -220 75 0 76 0 -154 -177 -154 -178 -66 -3 -67 -3 0 180 0 180 88 3 87 3 0 220 0 220 -487 3 -488 2 0 -225z"/>
 </g>

</svg>