<!DOCTYPE svg PUBLIC "-//W3C//DTD SVG 20010904//EN" "http://www.w3.org/TR/2001/REC-SVG-20010904/DTD/svg10.dtd">
<svg version="1.0" xmlns="http://www.w3.org/2000/svg" width="1200px" height="675px" viewBox="0 0 12000 6750" preserveAspectRatio="xMidYMid meet">
<g id="layer101" fill="#ffffff" stroke="none">
 <path d="M2327 4063 c-4 -3 -7 -96 -7 -205 l0 -198 93 0 c59 0 97 -4 105 -12 9 -9 12 -141 12 -532 0 -287 -4 -526 -8 -533 -5 -8 -42 -13 -102 -15 l-95 -3 -3 -202 -2 -203 110 0 110 0 0 74 c0 82 3 86 70 86 67 0 70 -4 70 -86 l0 -75 106 3 107 3 2 67 c2 36 6 71 9 77 10 16 115 14 121 -1 6 -17 13 -75 14 -115 l1 -33 105 0 105 0 0 200 0 199 -82 3 -83 3 0 180 0 180 66 3 65 3 144 -167 c78 -92 143 -174 144 -183 1 -13 -11 -17 -66 -19 l-68 -3 0 -199 0 -200 480 0 480 0 -2 203 -3 202 -76 3 -76 3 -70 82 c-38 45 -109 129 -158 187 -49 58 -91 107 -95 110 -14 12 -130 151 -130 157 0 12 412 500 453 536 14 13 37 17 88 17 l69 0 -2 203 -3 202 -478 3 -477 2 2 -202 3 -203 68 -3 c37 -2 67 -7 67 -12 0 -22 -287 -347 -313 -354 -32 -8 -90 -7 -105 2 -9 7 -12 50 -10 183 l3 174 83 3 82 3 -2 202 -3 202 -456 3 c-250 1 -459 -1 -462 -5z"/>
 <path d="M4420 3865 l0 -205 95 0 c90 0 95 -1 100 -22 3 -13 4 -257 3 -543 l-3 -520 -97 -3 -98 -3 0 -204 0 -205 850 0 850 0 0 340 0 340 -232 -2 -233 -3 -5 -135 -5 -135 -235 0 -235 0 0 170 0 170 198 3 197 2 0 190 0 190 -197 2 -198 3 0 180 0 180 242 3 242 2 3 -152 3 -153 233 -3 232 -2 0 360 0 360 -855 0 -855 0 0 -205z"/>
 <path d="M6220 3865 l0 -204 98 -3 97 -3 0 -540 0 -540 -97 -3 -98 -3 0 -204 0 -205 855 0 855 0 -2 338 -3 337 -232 3 -233 2 0 -128 c0 -86 -4 -132 -12 -140 -9 -9 -76 -12 -239 -12 l-228 0 -3 138 c-2 75 -1 153 2 172 l5 35 195 5 195 5 0 185 0 185 -195 3 c-128 2 -196 6 -201 13 -4 7 -5 75 -3 153 2 77 4 156 4 174 l0 32 239 0 c209 0 240 -2 245 -16 3 -9 6 -78 6 -155 l0 -139 235 0 235 0 -2 358 -3 357 -857 3 -858 2 0 -205z"/>
 <path d="M8027 4063 c-4 -3 -7 -96 -7 -205 l0 -198 93 0 c59 0 97 -4 105 -12 17 -17 17 -1049 0 -1066 -8 -8 -46 -12 -105 -12 l-93 0 0 -205 0 -205 698 0 c755 0 777 2 868 55 84 49 141 141 165 265 17 87 18 493 0 579 -38 190 -149 298 -330 322 -36 4 -196 8 -354 9 l-288 0 3 133 3 132 108 3 107 3 -2 202 -3 202 -481 3 c-264 1 -484 -1 -487 -5z m1130 -1096 c27 -26 28 -32 32 -142 4 -144 -4 -198 -34 -233 l-23 -27 -174 0 -173 0 -3 205 c-1 112 0 211 3 218 4 11 40 13 175 10 l170 -3 27 -28z"/>
 </g>

</svg>