<!DOCTYPE svg PUBLIC "-//W3C//DTD SVG 20010904//EN" "http://www.w3.org/TR/2001/REC-SVG-20010904/DTD/svg10.dtd">
<svg version="1.0" xmlns="http://www.w3.org/2000/svg" width="640px" height="640px" viewBox="0 0 6400 6400" preserveAspectRatio="xMidYMid meet">
<g id="layer101" fill="#0a0806" stroke="none">
 <path d="M2938 6255 c-3 -3 -43 -10 -89 -16 -128 -14 -209 -26 -259 -39 -25 -6 -64 -13 -88 -17 -23 -3 -45 -10 -48 -14 -3 -5 -16 -9 -29 -9 -13 0 -34 -4 -47 -9 -13 -5 -43 -14 -68 -21 -25 -7 -53 -16 -62 -21 -10 -5 -25 -9 -33 -9 -8 0 -23 -4 -33 -9 -9 -5 -28 -13 -42 -18 -14 -6 -37 -15 -52 -22 -16 -6 -38 -15 -50 -20 -44 -18 -163 -72 -203 -93 -22 -11 -67 -35 -100 -52 -33 -17 -62 -33 -65 -36 -10 -10 -65 -41 -82 -47 -10 -3 -18 -9 -18 -14 0 -5 -7 -9 -15 -9 -8 0 -15 -4 -15 -10 0 -5 -7 -10 -15 -10 -8 0 -15 -4 -15 -10 0 -5 -7 -10 -15 -10 -8 0 -15 -4 -15 -10 0 -5 -7 -10 -15 -10 -8 0 -15 -4 -15 -10 0 -5 -5 -10 -11 -10 -6 0 -16 -6 -23 -12 -7 -7 -28 -24 -46 -38 -18 -14 -41 -32 -51 -40 -10 -8 -43 -35 -74 -60 -31 -25 -81 -69 -110 -97 -30 -29 -59 -53 -64 -53 -5 0 -11 -4 -13 -9 -3 -7 -114 -133 -173 -195 -17 -18 -35 -40 -98 -121 -55 -72 -187 -262 -187 -270 0 -3 -19 -35 -41 -72 -43 -70 -151 -282 -161 -318 -4 -11 -20 -51 -36 -90 -84 -203 -157 -490 -194 -765 -20 -149 -16 -597 6 -745 31 -206 71 -390 111 -508 8 -24 16 -52 18 -63 2 -10 11 -36 20 -58 9 -21 17 -42 17 -46 0 -8 25 -69 61 -147 10 -24 19 -50 19 -58 0 -8 5 -15 10 -15 6 0 10 -7 10 -15 0 -8 13 -36 28 -62 16 -26 48 -86 73 -133 24 -47 47 -89 52 -95 4 -5 31 -46 59 -90 29 -44 58 -86 65 -93 7 -7 13 -16 13 -20 0 -4 13 -21 28 -39 15 -17 37 -44 49 -60 12 -15 31 -39 43 -53 12 -14 39 -45 59 -70 65 -80 248 -258 361 -350 30 -25 56 -48 58 -52 2 -5 8 -8 13 -8 8 0 35 -20 64 -47 8 -7 18 -13 24 -13 6 0 11 -4 11 -10 0 -5 4 -10 10 -10 5 0 33 -18 62 -40 29 -22 59 -40 66 -40 6 0 12 -4 12 -9 0 -5 8 -11 18 -14 9 -4 40 -20 67 -36 28 -17 66 -38 85 -48 19 -9 47 -25 62 -35 14 -10 33 -18 42 -18 9 0 16 -4 16 -10 0 -5 6 -10 14 -10 8 0 34 -10 58 -21 23 -12 53 -26 66 -30 27 -11 62 -25 100 -40 15 -7 38 -16 52 -22 14 -5 33 -13 42 -18 10 -5 29 -9 42 -9 14 0 27 -4 30 -9 3 -5 18 -11 33 -14 16 -3 64 -15 108 -27 219 -60 557 -105 785 -104 86 0 314 18 425 34 152 21 391 72 427 91 10 5 27 9 37 9 11 0 23 5 26 10 3 6 17 10 31 10 13 0 32 4 42 9 9 5 31 14 47 21 17 7 38 16 47 21 10 5 24 9 31 9 7 0 39 13 72 30 33 16 68 30 78 30 9 0 17 5 17 10 0 6 9 10 20 10 11 0 20 5 20 10 0 6 9 10 19 10 11 0 21 4 23 8 2 4 28 20 58 35 30 15 78 41 105 58 28 16 58 32 68 36 9 3 17 9 17 14 0 5 5 9 11 9 10 0 99 57 109 70 3 3 28 22 55 40 28 19 52 37 53 42 2 4 8 8 14 8 5 0 15 6 22 12 7 7 35 32 62 55 27 23 60 51 74 63 86 73 290 283 350 360 19 25 40 51 47 58 7 7 13 17 13 20 0 4 10 18 23 32 13 14 55 75 95 135 39 61 75 115 79 121 19 25 164 310 196 384 21 51 73 189 86 230 60 198 72 248 105 435 39 223 43 278 45 505 1 163 -3 253 -19 370 -33 260 -101 552 -161 687 -11 24 -19 46 -19 51 0 9 -80 194 -109 250 -12 23 -18 42 -14 42 5 0 3 4 -3 8 -6 4 -26 36 -45 72 -18 36 -36 67 -40 70 -3 3 -16 25 -30 50 -13 25 -28 50 -34 56 -5 6 -21 30 -35 53 -14 23 -35 54 -47 69 -13 15 -23 31 -23 35 0 5 -6 14 -12 21 -29 30 -58 66 -52 66 2 0 -6 11 -19 24 -13 13 -41 46 -63 72 -48 60 -271 284 -339 341 -28 23 -60 50 -72 60 -12 10 -30 25 -41 35 -11 9 -62 44 -114 79 -51 34 -94 66 -96 71 -2 4 -10 8 -18 8 -8 0 -14 5 -14 10 0 6 -7 10 -15 10 -8 0 -15 3 -15 8 0 4 -15 13 -32 21 -18 8 -35 17 -38 20 -3 4 -26 17 -52 30 -27 13 -48 28 -48 33 0 4 -6 8 -12 8 -7 0 -51 18 -98 41 -47 23 -94 45 -105 49 -11 4 -32 12 -47 19 -16 6 -39 16 -53 21 -61 24 -81 33 -97 41 -10 5 -27 9 -37 9 -11 0 -23 5 -26 10 -3 6 -17 10 -30 10 -13 0 -27 5 -30 10 -3 6 -19 10 -35 10 -16 0 -31 4 -34 9 -3 5 -20 11 -38 14 -41 7 -118 23 -178 38 -45 10 -103 20 -240 40 -80 12 -632 24 -642 14z"/>
 </g>
<g id="layer102" fill="#f8fcfb" stroke="none">
 <path d="M1920 4155 l0 -275 130 0 130 0 0 -680 0 -680 -130 0 -130 0 0 -275 0 -275 150 0 150 0 0 105 0 105 75 0 75 0 0 -105 0 -105 150 0 150 0 0 105 0 105 70 0 70 0 0 -105 0 -105 155 0 155 0 0 275 0 275 -110 0 -110 0 0 220 0 220 78 0 c89 0 72 11 192 -130 30 -36 67 -78 81 -95 15 -16 59 -68 98 -115 l72 -85 -91 -3 -90 -3 0 -279 0 -280 625 0 625 0 0 281 0 281 -68 -7 c-94 -9 -138 5 -181 58 -18 23 -55 67 -81 97 -26 30 -89 105 -141 165 -52 61 -106 124 -120 140 -100 113 -179 210 -179 219 0 6 10 22 23 36 12 14 141 163 286 332 l263 307 96 3 97 3 3 273 2 272 -620 0 -620 0 0 -270 0 -270 96 0 96 0 -53 -62 c-92 -108 -224 -263 -234 -274 -5 -6 -30 -35 -54 -63 l-43 -52 -77 3 -76 3 0 220 0 220 108 3 107 3 0 269 0 270 -600 0 -600 0 0 -275z"/>
 <path d="M3168 143 c23 -2 61 -2 85 0 23 2 4 4 -43 4 -47 0 -66 -2 -42 -4z"/>
 </g>

</svg>